# xmcd CD database file
#
# Track frame offsets:
#	150
#	22992
#	40188
#	52305
#	66024
#	79834
#	93068
#	106097
#	115661
#	127340
#
# Disc length: 1936 seconds
#
# Revision: 0
# Processed by: cddbd v1.5.2PL0 Copyright (c) Steve Scherf et al.
# Submitted via: CDex 1.51
#
DISCID=7d078e0a
DTITLE=SOUL GOSPEL CLASSIC - Soul Gospel Classics Volume Two
DYEAR=2001
DGENRE=Blues
TTITLE0=Oh Happy Day(Edwin Hawkins Singers)
TTITLE1=God Still Ansvers Prayers(Clarence Fountain - The Blind Boys)
TTITLE2=Play On(The Staples Singers)
TTITLE3=A Worker For The Lord(The Blind Boys Of Mississippi)
TTITLE4=Jesus Gave Me Water(B.B. King)
TTITLE5=We'll Fly You To The Promise Land(Etta James)
TTITLE6=You'll Never Walk Alone(The Five Blind Boys Of Alabama)
TTITLE7=Swing Low Sweet Chariot  Rock Me Lord(B.B. King)
TTITLE8=Jonah(The Mighty Clouds Of Joy)
TTITLE9=Clarence Fountain and the Blind boys - Look To Jesus
EXTD=YEAR: 2001
EXTT0=
EXTT1=
EXTT2=
EXTT3=
EXTT4=
EXTT5=
EXTT6=
EXTT7=
EXTT8=
EXTT9=
PLAYORDER=
